<svg id="圖層_1" data-name="圖層 1" xmlns="http://www.w3.org/2000/svg" viewBox="0 0 283.46 125.14"><defs><style>.cls-1{fill:#cab3a5;}</style></defs><path class="cls-1" d="M280.52,155.41a1.22,1.22,0,0,0-1,.11c-15.64,8.95-30.63,19.58-49.82,14.8-2.32-.81-12,0-9.19-4.38,5.2-14.34,32.31-37.95,15.37-50.77a1.2,1.2,0,0,0-.21-.13c-9.79-5.16-17.8,2.17-25.9,4a1.21,1.21,0,0,1-.89-.15c-10.46-6.34-27.7-4.84-29.54,9.12l0,.13c-5.73,20.4,14.88,32.83,25.32,44.17a1.19,1.19,0,0,1,.08,1.52c-13.12,17.47-39.49,12.81-49.48-5.71a.5.5,0,0,0-.08-.12c-9.09-11.68,12.13-24.74.85-35.87a1.41,1.41,0,0,1-.3-.46c-4-11.3-20.81-9.33-28.31-2.43a.79.79,0,0,1-.15.12c-23.36,14.38-11.6,44-34.26,48.48a1,1,0,0,0-.24.07c-22.19,9.63,11.77-29.82,4.31-42.56a1.21,1.21,0,0,1-.16-.53c-.62-8.34-7.86-10.74-15.46-11.13a1.2,1.2,0,0,1-1.1-1.52c3.51-12.54,14.93-38.9-6.79-37.88h-.16C58,82.6,44.6,99,34.44,102.76a1.21,1.21,0,0,1-1.58-.84c-1.73-7.18.72-20.43-6.76-22.71a1.2,1.2,0,0,0-1.44.7c-4.16,9.77,7.36,25.17.19,35.65-16,22.29-26,51.62-24.75,78.8a1.3,1.3,0,0,0,.37.83C23,217.8,38.64,134.41,34.24,117.87a1.11,1.11,0,0,1,0-.65C38,105,68.43,83.51,78.55,93.18a1.17,1.17,0,0,1,.35.77c.76,10.55-1.3,25.24-10.32,31.52a1.22,1.22,0,0,1-.67.2c-9.9.12-32.13,17.07-13.7,20.28a1.27,1.27,0,0,0,.94-.23c45.68-33.2,41.63-3.16,21.16,31.95a1.4,1.4,0,0,1-.1.16c-9.09,11.82-52.28,1.75-46,23.39a1.22,1.22,0,0,0,.72.8c25.77,10.4,47.43-17.92,72.79-21.41a1.24,1.24,0,0,1,1,.29c31.13,26.07,35.87-26.1,46.59-5.71l.06.1c14,22,45.07,22.08,60.82,2a1.22,1.22,0,0,1,.84-.47c16.26-1.5,37.92,7.81,53.4-5a1.11,1.11,0,0,1,.37-.2C272.33,169.86,290.51,158.73,280.52,155.41ZM28.14,153.27a1,1,0,0,1-.12.41C25,160,13.64,202.82,5.73,191.73a1.2,1.2,0,0,1-.19-.45C.9,168.74,36.77,79.24,28.14,153.27ZM60.8,137.44a11.44,11.44,0,0,0-2.6,1.34,1.3,1.3,0,0,1-.94.24c-3.19-.49-.39-3,2.83-3.89A1.21,1.21,0,0,1,60.8,137.44ZM55,196.32l-7.69,1.79-.24,0c-28,.93,3.63-6.71,11-8.21h0C72.61,185.77,63,194.54,55,196.32ZM144.57,157c-3.41,7.89-25.51,35.68-28.66,19.42a1.23,1.23,0,0,1,.57-1.3c9.63-5.76,20.06-10.27,27.08-19.61C144.8,154.41,145.39,156.12,144.57,157Zm2.85-20.44c-5,14.12-18.23,24.94-31.54,30.92a1.21,1.21,0,0,1-1.69-1c-1.16-14.12,25.29-49.43,33.21-30.84A1.24,1.24,0,0,1,147.42,136.58ZM209,135.09c.81-2.64,2.62-4.42,4-4s1.93,2.92,1.12,5.56-2.62,4.42-4,4S208.2,137.72,209,135.09Zm7.54,23.16-.06.17c-5.1,18.86-33.15-13.63-30.28-24.25a1.07,1.07,0,0,0,0-.25c.29-18.17,26.88-13.65,17.51,4.39a1.28,1.28,0,0,0-.14.43c-1.15,9.6,11.37,9.8,14.18,3a.78.78,0,0,1,.11-.2c4.34-6-3.2-13.94,1.45-18.21a1.27,1.27,0,0,1,.43-.26C249.07,112.56,221.37,147.77,216.55,158.25Z" transform="translate(0 -79.16)"/></svg>